<?xml version="1.0" standalone="no"?><!DOCTYPE svg PUBLIC "-//W3C//DTD SVG 1.1//EN" "http://www.w3.org/Graphics/SVG/1.1/DTD/svg11.dtd"><svg t="1573806369397" class="icon" viewBox="0 0 1024 1024" version="1.1" xmlns="http://www.w3.org/2000/svg" p-id="2899" xmlns:xlink="http://www.w3.org/1999/xlink" width="200" height="200"><defs><style type="text/css"></style></defs><path d="M544.015 416c-12.8 0-19.2-6.4-32-6.4-51.2 0-89.6 38.4-89.6 89.6 0 12.8 6.4 32 12.8 44.8-44.8-6.4-83.2 0-89.6 0-6.4-12.8-6.4-25.6-6.4-44.8 0-96 76.8-172.8 172.8-172.8h19.2c-6.4 38.4 6.4 70.4 12.8 89.6z m473.6 147.2h-339.2c-25.6 64-89.6 115.2-166.4 115.2-76.8 0-134.4-44.8-160-108.8 44.8-12.8 96 0 102.4 0 19.2 6.4 38.4 25.6 57.6 25.6 51.2 0 89.6-38.4 89.6-89.6 0-25.6-12.8-44.8-25.6-64-32-38.4-25.6-102.4-25.6-108.8 64 12.8 121.6 70.4 134.4 134.4h204.8V448c-44.8-134.4-185.6-147.2-185.6-147.2-70.4-108.8-192-102.4-192-102.4-134.4 0-198.4 108.8-198.4 108.8-192 38.4-185.6 172.8-185.6 172.8-6.4 204.8 192 224 192 224 64 102.4 185.6 108.8 185.6 108.8 140.8 0 204.8-108.8 204.8-108.8 102.4-12.8 147.2-70.4 172.8-121.6h134.4c-64 166.4-249.6 185.6-249.6 185.6-89.6 134.4-224 140.8-224 140.8-192 25.6-294.4-140.8-294.4-140.8-256-32-249.6-268.8-249.6-268.8 12.8-236.8 249.6-262.4 249.6-262.4 102.4-160 268.8-147.2 268.8-147.2 172.8 0 249.6 147.2 249.6 147.2 166.4 19.2 224 134.4 243.2 204.8 0 0 0 12.8 6.4 25.6 0 6.4 6.4 51.2 0 96z" fill="#1296db" p-id="2900"></path></svg>