<?xml version="1.0" standalone="no"?><!DOCTYPE svg PUBLIC "-//W3C//DTD SVG 1.1//EN" "http://www.w3.org/Graphics/SVG/1.1/DTD/svg11.dtd"><svg t="1573611090633" class="icon" viewBox="0 0 1024 1024" version="1.1" xmlns="http://www.w3.org/2000/svg" p-id="1139" xmlns:xlink="http://www.w3.org/1999/xlink" width="200" height="200"><defs><style type="text/css"></style></defs><path d="M1024 656.48876c0 111.854663-90.020827 202.532576-201.023182 202.532576L200.987471 859.021336C89.987496 859.021336 0 768.343423 0 656.48876c0-101.022261 73.388924-184.7103 169.404474-200.023268-1.216562-7.089866-1.887933-14.384477-1.887933-21.893355 0-70.872474 57.023666-128.317532 127.384279-128.317532 31.378253 0 60.132922 11.43235 82.316728 30.454523 39.548979-89.789894 90.249379-171.732845 232.484761-171.732845 172.499445 0 254.256698 134.04323 254.256698 275.488204 0 5.916158-0.247598 11.777558-0.645183 17.577059C955.001174 476.866118 1024 558.554328 1024 656.48876z" p-id="1140" fill="#1C7EC3"></path></svg>