<?xml version="1.0" standalone="no"?><!DOCTYPE svg PUBLIC "-//W3C//DTD SVG 1.1//EN" "http://www.w3.org/Graphics/SVG/1.1/DTD/svg11.dtd"><svg t="1559039309016" class="icon" style="" viewBox="0 0 1024 1024" version="1.1" xmlns="http://www.w3.org/2000/svg" p-id="5354" xmlns:xlink="http://www.w3.org/1999/xlink" width="200" height="200"><defs><style type="text/css"></style></defs><path d="M112.384 643.072h13.824c3.584 0 6.656 3.072 6.656 6.656 0 3.584-3.072 6.656-6.656 6.656h-13.824v13.312c0 3.584-3.072 6.656-6.656 6.656-3.584 0-6.656-3.072-6.656-6.656v-13.824h-13.824c-3.584 0-6.656-3.072-6.656-6.656 0-3.584 3.072-6.656 6.656-6.656h13.824V629.76c0-3.584 3.072-6.656 6.656-6.656 3.584 0 6.656 3.072 6.656 6.656v13.312zM1000.704 589.824v-13.312c0-3.584-3.072-6.656-6.656-6.656-3.584 0-6.656 3.072-6.656 6.656v13.312h-13.824c-3.584 0-6.656 3.072-6.656 6.656 0 3.584 3.072 6.656 6.656 6.656h13.824v13.312c0 3.584 3.072 6.656 6.656 6.656 3.584 0 6.656-3.072 6.656-6.656v-13.312h13.312c3.584 0 6.656-3.072 6.656-6.656 0-3.584-3.072-6.656-6.656-6.656H1000.704z m-488.96 220.672H172.8c-7.168 0-13.312-6.144-13.312-13.312 0-7.168 6.144-13.312 13.312-13.312h60.928c-4.608-8.192-7.168-17.408-7.168-26.624V368.64c0-29.696 24.064-53.76 53.76-53.248h40.448V302.08c0-29.696 24.064-53.76 53.76-53.248h323.072c29.696 0 53.76 23.552 53.76 53.248v388.608c0 9.216-2.56 18.432-7.168 26.624h74.24c7.168 0 13.312 5.632 13.824 13.312 0 7.168-5.632 13.312-13.312 13.824h-161.792v13.312c0 9.216-2.56 18.432-7.168 26.624h7.168c7.168 0 13.312 6.144 13.312 13.824 0 7.168-6.144 12.8-13.312 13.312h-70.656c6.144 10.752 4.608 24.064-4.096 32.768-10.24 10.24-27.648 10.24-37.888 0l-32.768-33.792z m49.152-26.624h43.008c14.848 0 26.624-11.776 26.624-26.624v-389.12c0-14.336-11.776-26.112-26.112-26.112H279.296c-14.336 0-26.112 11.776-26.112 26.112v388.608c0 14.848 11.776 26.624 26.624 26.624h204.288l-6.656-6.656c-6.656-6.656-9.728-16.384-7.168-26.112l-12.8-12.8c-41.984 30.72-100.864 22.528-132.096-19.456-27.648-37.376-24.064-89.088 8.704-121.856 36.864-36.864 96.256-36.864 133.12 0 33.28 32.768 36.864 85.504 8.704 122.368l12.8 12.8c9.216-2.56 18.944 0 26.112 7.168l46.08 45.056z m96.256-67.072h40.448c14.848 0 26.624-11.776 26.624-26.624V302.08c0-14.848-11.776-26.624-26.624-26.624H374.528c-14.848 0-26.624 11.776-26.624 26.624v13.312h255.488c29.696 0 53.76 23.552 53.76 53.248v348.16zM183.04 224.768h19.968c5.632 0 10.24 4.096 10.24 9.728 0 5.632-4.096 10.24-9.728 10.24h-20.48v19.968c0 5.632-4.608 10.24-10.24 10.24s-10.24-4.608-10.24-10.24v-19.968h-19.968c-5.632 0-10.24-4.608-10.24-9.728 0-5.632 4.608-10.24 10.24-10.24h19.968V204.8c0-5.632 4.608-10.24 10.24-10.24s10.24 4.608 10.24 10.24v19.968zM24.832 797.184c0-7.168 6.144-13.312 13.312-13.312h80.896c7.168 0 13.312 5.632 13.824 13.312 0 7.168-5.632 13.312-13.312 13.824H38.144c-7.168-0.512-13.312-6.144-13.312-13.824z m424.448-86.528c26.112-26.112 26.112-68.096 0.512-94.208l-0.512-0.512c-26.112-26.112-68.608-26.112-95.232 0-26.112 26.112-26.112 68.096-0.512 94.208l0.512 0.512c26.112 26.112 68.608 26.112 95.232 0zM307.456 395.776c0-7.168 6.144-13.312 13.312-13.312h147.968c7.168 0 13.312 5.632 13.824 13.312 0 7.168-5.632 13.312-13.312 13.824h-148.48c-7.168-0.512-13.312-6.656-13.312-13.824z m0 67.072c0-7.168 6.144-13.312 13.312-13.312h215.552c7.168 0 13.312 6.144 13.312 13.824 0 7.168-6.144 12.8-13.312 13.312H320.768c-7.168-0.512-13.312-6.656-13.312-13.824z m0 66.56c0-7.168 6.144-13.312 13.312-13.312h94.208c7.168 0 13.312 6.144 13.312 13.312S422.144 542.72 414.976 542.72H320.768c-7.168 0-13.312-5.632-13.312-13.312z m-256-80.384c-22.016 0-40.448-17.92-40.448-39.936S28.928 368.64 50.944 368.64s39.936 17.92 40.448 39.936c0.512 22.528-17.408 40.448-39.936 40.448 0.512 0 0 0 0 0z m0-19.968c11.264 0 19.968-9.216 19.968-19.968 0-11.264-9.216-19.968-19.968-19.968-11.264 0-19.968 9.216-19.968 19.968 0 11.264 9.216 19.968 19.968 19.968z m834.56-59.904c-22.016 0.512-40.448-17.408-40.448-39.424-0.512-22.016 17.408-40.448 39.424-40.448h1.024c22.016-0.512 40.448 17.408 40.448 39.424 0.512 22.016-17.408 40.448-39.424 40.448h-1.024z m0-20.48c11.264 0 19.968-9.216 19.968-19.968 0-11.264-9.216-19.968-19.968-19.968-11.264 0-19.968 9.216-19.968 19.968 0 11.264 8.704 19.968 19.968 19.968z" fill="#ffffff" p-id="5355"></path></svg>