<?xml version="1.0" standalone="no"?><!DOCTYPE svg PUBLIC "-//W3C//DTD SVG 1.1//EN" "http://www.w3.org/Graphics/SVG/1.1/DTD/svg11.dtd"><svg t="1559038971385" class="icon" style="" viewBox="0 0 1024 1024" version="1.1" xmlns="http://www.w3.org/2000/svg" p-id="1529" xmlns:xlink="http://www.w3.org/1999/xlink" width="200" height="200"><defs><style type="text/css"></style></defs><path d="M886.491695 62.389956 137.507282 62.389956c-41.510416 0-75.117838 33.634028-75.117838 75.117838L62.389444 886.49323c0 41.509393 33.625842 75.116815 75.117838 75.116815l748.984413 0c41.510416 0 75.117838-33.635051 75.117838-75.116815L961.609533 137.507794C961.609533 95.997378 927.984714 62.389956 886.491695 62.389956zM774.272867 230.993978c41.381479 0 74.934666 33.552164 74.934666 74.93569 0 41.381479-33.552164 74.93569-74.934666 74.93569-41.382503 0-74.93569-33.553187-74.93569-74.93569C699.337177 264.546142 732.889341 230.993978 774.272867 230.993978zM842.986855 730.577181c-10.977006 10.966773-28.685319 11.066033-39.663348 0.090051L658.174686 585.52762l-96.212272 96.220459 72.080665 72.088852c10.994402 10.977006 11.06808 28.704762 0.01842 39.755446-10.977006 10.977006-28.704762 11.032264-39.754423-0.01842L334.870302 534.154579l-100.528578 100.538811c-10.940167 10.940167-28.631084 10.986215-39.680744-0.063445-10.978029-10.977006-10.867512-28.868491-0.055259-39.680744l119.335922-119.336946c5.835915-5.835915 13.592576-8.580422 21.239743-8.17724 7.445576-0.220011 14.984273 2.515287 20.72809 8.249895l166.299537 166.326143 110.205984-110.197798c6.989181-6.997368 16.758686-9.540284 25.777083-7.573489 8.982582-1.966795 18.715247 0.531096 25.740244 7.537673l159.127184 159.145603C854.0007 701.844789 854.037539 719.516264 842.986855 730.577181z" p-id="1530" fill="#cdcdcd"></path></svg>