<?xml version="1.0" standalone="no"?><!DOCTYPE svg PUBLIC "-//W3C//DTD SVG 1.1//EN" "http://www.w3.org/Graphics/SVG/1.1/DTD/svg11.dtd"><svg t="1566198300570" class="icon" viewBox="0 0 1024 1024" version="1.1" xmlns="http://www.w3.org/2000/svg" p-id="3603" width="32" height="32" xmlns:xlink="http://www.w3.org/1999/xlink"><defs><style type="text/css"></style></defs><path d="M465.2 725.8H194c-21.1 0-39.9-10.9-50.4-29.1s-10.5-40 0-58.2l135.6-234.9c10.5-18.2 29.4-29.1 50.4-29.1s39.9 10.9 50.4 29.1l135.6 234.9c10.5 18.2 10.5 40 0 58.2s-29.4 29.1-50.4 29.1zM313.8 423.6L178.2 658.5c-4.8 8.2-1.6 15.5 0 18.2 1.6 2.7 6.3 9.1 15.8 9.1h271.2c9.5 0 14.2-6.4 15.8-9.1 1.6-2.7 4.8-10 0-18.2L345.4 423.6c-4.8-8.2-12.6-9.1-15.8-9.1s-11.1 0.9-15.8 9.1z" fill="#15487B" p-id="3604"></path><path d="M802.7 725.9H337.3v-40h465.4c16.5 0 31.3-8.5 39.5-22.8s8.2-31.3 0-45.6L609.5 214.4c-8.2-14.3-23-22.8-39.5-22.8s-31.3 8.5-39.5 22.8L400.7 439.1l-34.6-20 129.7-224.7c15.5-26.8 43.2-42.8 74.1-42.8 31 0 58.7 16 74.1 42.8l232.7 403.1c15.5 26.8 15.5 58.8 0 85.6-15.4 26.8-43.1 42.8-74 42.8zM342.6 309.4c-27.7 0-50.2-22.5-50.2-50.2 0-27.7 22.5-50.2 50.2-50.2s50.2 22.5 50.2 50.2c0 27.7-22.5 50.2-50.2 50.2z m0-84.3c-18.9 0-34.2 15.3-34.2 34.2s15.3 34.2 34.2 34.2 34.2-15.3 34.2-34.2-15.4-34.2-34.2-34.2zM342.6 201c-2.7 0-5-2.2-5-5v-9c0-2.7 2.2-5 5-5 2.7 0 5 2.2 5 5v9c-0.1 2.8-2.3 5-5 5zM342.6 335.3c-2.7 0-5-2.2-5-5v-9c0-2.7 2.2-5 5-5 2.7 0 5 2.2 5 5v9c-0.1 2.7-2.3 5-5 5zM284.9 258.7c0 2.7-2.2 5-5 5h-9c-2.7 0-5-2.2-5-5 0-2.7 2.2-5 5-5h9c2.8 0.1 5 2.3 5 5zM419.2 258.7c0 2.7-2.2 5-5 5h-9c-2.7 0-5-2.2-5-5 0-2.7 2.2-5 5-5h9c2.7 0.1 5 2.3 5 5z" fill="#15487B" p-id="3605"></path><path d="M300 217.9c-1.9 1.9-5.1 1.9-7 0l-6.3-6.3c-1.9-1.9-1.9-5.1 0-7 1.9-1.9 5.1-1.9 7 0l6.3 6.3c1.9 1.9 1.9 5.1 0 7zM394.9 312.8c-1.9 1.9-5.1 1.9-7 0l-6.3-6.3c-1.9-1.9-1.9-5.1 0-7 1.9-1.9 5.1-1.9 7 0l6.3 6.3c1.9 2 1.9 5.1 0 7z" fill="#15487B" p-id="3606"></path><path d="M381.6 217.9c1.9 1.9 5.1 1.9 7 0l6.3-6.3c1.9-1.9 1.9-5.1 0-7-1.9-1.9-5.1-1.9-7 0l-6.3 6.3c-2 1.9-2 5.1 0 7zM286.6 312.8c1.9 1.9 5.1 1.9 7 0l6.3-6.3c1.9-1.9 1.9-5.1 0-7-1.9-1.9-5.1-1.9-7 0l-6.3 6.3c-1.9 2-1.9 5.1 0 7z" fill="#15487B" p-id="3607"></path><path d="M808.1 802.9H215.9c-11 0-20-9-20-20s9-20 20-20h592.2c11 0 20 9 20 20s-9 20-20 20zM715.9 871.5H308.1c-5.5 0-10-4.5-10-10s4.5-10 10-10h407.8c5.5 0 10 4.5 10 10s-4.4 10-10 10z" fill="#15487B" p-id="3608"></path></svg>